<?xml version="1.0" standalone="no"?>
<!DOCTYPE svg PUBLIC "-//W3C//DTD SVG 20010904//EN"
 "http://www.w3.org/TR/2001/REC-SVG-20010904/DTD/svg10.dtd">
<svg version="1.0" xmlns="http://www.w3.org/2000/svg"
 width="512.000000pt" height="512.000000pt" viewBox="0 0 512.000000 512.000000"
 preserveAspectRatio="xMidYMid meet">
<metadata>
Created by potrace 1.11, written by Peter Selinger 2001-2013
</metadata>
<g transform="translate(0.000000,512.000000) scale(0.100000,-0.100000)"
fill="#000000" stroke="none">
<path d="M0 2560 l0 -2560 2560 0 2560 0 0 2560 0 2560 -2560 0 -2560 0 0
-2560z m1689 578 c194 -409 356 -747 361 -751 4 -5 60 91 124 213 l116 221
-201 412 c-111 227 -228 465 -260 530 l-59 117 300 -2 301 -3 324 -690 c179
-379 335 -712 348 -739 l24 -50 52 110 c28 60 186 393 349 739 l298 630 297 3
c163 1 297 -1 296 -5 0 -5 -276 -609 -612 -1343 l-613 -1335 -68 0 -68 0 -221
488 c-142 311 -225 483 -230 475 -5 -7 -107 -227 -227 -488 l-219 -475 -67 0
-68 0 -62 135 c-379 829 -1131 2474 -1145 2508 l-18 42 298 0 298 0 352 -742z"/>
</g>
</svg>
